Motion_pu04
version=1
nRows=16
nColumns=43
inDegrees=yes
endheader
time	pelvis_tilt	pelvis_list	pelvis_rotation	pelvis_tx	pelvis_ty	pelvis_tz	hip_flexion_r	hip_adduction_r	hip_rotation_r	knee_angle_r	ankle_angle_r	subtalar_angle_r	mtp_angle_r	hip_flexion_l	hip_adduction_l	hip_rotation_l	knee_angle_l	ankle_angle_l	subtalar_angle_l	mtp_angle_l	lumbar_extension	lumbar_bending	lumbar_rotation	neck_flexion	neck_lateral_bending	neck_rotation	arm_flex_r	arm_add_r	arm_rot_r	elbow_flex_r	pro_sup_r	wrist_flex_r	wrist_dev_r	hand_finger_flex_r	arm_flex_l	arm_add_l	arm_rot_l	elbow_flex_l	pro_sup_l	wrist_flex_l	wrist_dev_l	hand_finger_flex_l
      3.45250000	      0.02071155	      6.60482562	    -95.20171896	      0.01398065	      0.88351746	      0.97734607	      4.76709541	     -8.77157272	      0.71287332	    -48.03582522	      4.89054538	     -6.40740936	     21.47979757	      4.84144096	     -0.60527283	     -5.43519739	    -44.06848585	     18.01250592	      7.02846739	     32.59101747	     -1.71291068	      4.96531049	     12.58026523	    -20.14286538	      1.94237796	    -12.38387194	    -15.29346507	   -150.05219100	   -136.61264225	     60.90885205	    129.39463962	     19.20826422	     -4.23090963	     69.10810541	    137.92633672	    -25.29316038	      5.41739204	     73.61311366	    146.09259836	     12.60886763	      7.00905222	     73.82667731
      3.45500000	     -0.10552104	      6.72901900	    -95.41893061	      0.01424295	      0.88390856	      0.97766428	      4.32496532	     -8.65196164	      0.59903899	    -46.98857731	      5.89409760	     -7.00994630	     21.65920275	      4.23823221	     -0.61806146	     -5.85068340	    -42.79123975	     18.81644998	      6.20344500	     32.38224573	     -1.39735018	      5.14916758	     12.63969639	    -21.06225259	      2.17926148	    -12.78073369	    -15.93109672	   -149.91474058	   -137.05034665	     61.20214406	    129.13288957	     18.97260437	     -4.29588937	     68.92831957	    137.42364183	    -25.38118821	      5.42206174	     74.31083414	    146.23187944	     12.95904760	      6.99119667	     73.75047185
      3.45750000	     -0.11907818	      6.72007559	    -95.44162769	      0.01440629	      0.88434787	      0.97618999	      4.37112337	     -8.64919785	      0.59772039	    -46.94303308	      5.89879849	     -7.01294708	     21.66069090	      4.28096309	     -0.59990069	     -5.86290102	    -42.75627801	     18.82233403	      6.19558656	     32.37624904	     -1.50718099	      5.16410951	     12.60405184	    -21.08930881	      2.17584973	    -12.78320550	    -15.98772039	   -149.89196222	   -137.00769202	     61.21647874	    129.13159579	     18.97105543	     -4.29626804	     68.92488097	    137.41217799	    -25.40250094	      5.40427264	     74.28572562	    146.23939506	     12.96690791	      6.99799187	     73.74704011
      3.46000000	     -0.12626669	      6.71104271	    -95.43718619	      0.01466520	      0.88494476	      0.97424073	      4.42974530	     -8.62195704	      0.58515570	    -46.85880059	      5.90872314	     -7.01784597	     21.66262346	      4.35457933	     -0.56827678	     -5.88609501	    -42.67461740	     18.83451630	      6.18192912	     32.36728235	     -1.65122428	      5.17582968	     12.59930788	    -21.13965398	      2.17008919	    -12.78731646	    -16.01360508	   -149.86105478	   -136.99995722	     61.26491053	    129.13014987	     18.96372487	     -4.29761185	     68.91978464	    137.41353955	    -25.42906069	      5.37830101	     74.27721146	    146.24810305	     12.97486092	      7.00447529	     73.74242473
      3.46250000	     -0.17082095	      6.76202453	    -95.52022165	      0.01498050	      0.88566486	      0.97199144	      4.47256425	     -8.57632756	      0.55588957	    -46.50330159	      5.97582122	     -7.07810333	     21.67558907	      4.36624530	     -0.57384181	     -5.94874056	    -42.33792015	     18.90945299	      6.04342564	     32.29687029	     -1.86527936	      5.19826220	     12.59500822	    -21.44798638	      2.14320560	    -12.82901044	    -15.90468734	   -149.76319158	   -137.10913826	     61.50072175	    129.13604006	     18.89397586	     -4.29392208	     68.87943072	    137.61863668	    -25.42886414	      5.20959346	     74.50436584	    146.29125531	     13.00530231	      7.01784694	     73.71009355
      3.46500000	     -0.17603597	      6.75813032	    -95.53224599	      0.01503767	      0.88607635	      0.97053310	      4.49607813	     -8.55352540	      0.54821901	    -46.45334511	      5.98579319	     -7.08438810	     21.67703591	      4.41954104	     -0.56505580	     -5.96328349	    -42.26974683	     18.92165168	      6.02832672	     32.28913601	     -1.96151550	      5.19224723	     12.57874207	    -21.46721963	      2.14321579	    -12.83362209	    -15.94017406	   -149.73784770	   -137.10278571	     61.48981713	    129.13556835	     18.88921950	     -4.29286300	     68.87514505	    137.56273755	    -25.42791338	      5.22294163	     74.49190489	    146.29720466	     13.01792367	      7.02027297	     73.70700756
      3.46750000	     -0.17967890	      6.75418767	    -95.51308754	      0.01533512	      0.88669173	      0.96862165	      4.56409013	     -8.51798601	      0.53326770	    -46.34195201	      6.00662009	     -7.09626897	     21.67911026	      4.47128387	     -0.54215887	     -5.98884189	    -42.15632118	     18.94233998	      6.00371640	     32.27742808	     -2.09061964	      5.19693164	     12.58439546	    -21.50924163	      2.14290056	    -12.84183306	    -15.95382621	   -149.69320793	   -137.12030736	     61.51535092	    129.13448413	     18.87890650	     -4.29350256	     68.86872771	    137.52671106	    -25.43455410	      5.22480945	     74.50506029	    146.30481456	     13.02978655	      7.02211183	     73.70207741
      3.47000000	     -0.48119432	      6.37689712	    -95.87478357	      0.01536902	      0.88827747	      0.96912803	      3.58085464	     -8.24155449	      0.64950784	    -45.17680764	      6.39023493	     -7.73287595	     21.76029579	      3.28804677	     -0.64220335	     -6.42994278	    -40.84129705	     19.48143540	      4.59259884	     31.43719938	     -2.34120871	      5.53240760	     12.94066723	    -22.92018664	      2.37178146	    -13.27989036	    -16.51077273	   -149.53427713	   -137.36604052	     61.88409056	    129.15940645	     18.36814343	     -4.25193041	     68.47066228	    136.83423745	    -25.20027843	      4.71090628	     75.16033769	    146.91865384	     13.70972568	      7.29091469	     73.29810922
      3.47250000	     -0.48302879	      6.37583065	    -95.88152449	      0.01540728	      0.88866711	      0.96767322	      3.61779944	     -8.20029015	      0.63743348	    -45.13180443	      6.38734996	     -7.73114541	     21.76021698	      3.33585760	     -0.62482226	     -6.43947815	    -40.78399735	     19.47800794	      4.59255472	     31.42826524	     -2.43623228	      5.50992506	     12.92399980	    -22.91509121	      2.36353372	    -13.28018705	    -16.53257174	   -149.48007176	   -137.34246895	     61.87777277	    129.16081810	     18.36896899	     -4.25142228	     68.46853234	    136.80791894	    -25.22880094	      4.70947398	     75.15747970	    146.92328101	     13.71637094	      7.29179737	     73.29344616
      3.47500000	     -0.49349395	      6.37535483	    -95.86825402	      0.01567302	      0.88925280	      0.96573608	      3.69199074	     -8.17937949	      0.62831810	    -45.03908928	      6.39073977	     -7.73401277	     21.76019997	      3.40509143	     -0.60460893	     -6.45438329	    -40.67685481	     19.47789696	      4.58926921	     31.41558814	     -2.57817091	      5.51382738	     12.91351160	    -22.91922363	      2.35412771	    -13.28241936	    -16.53357843	   -149.43422156	   -137.33405326	     61.90820321	    129.16180781	     18.36644484	     -4.25285781	     68.46537139	    136.79774141	    -25.23179847	      4.71544212	     75.18106093	    146.92688536	     13.72184891	      7.28857463	     73.28645936
      3.47750000	     -0.51457351	      6.45361228	    -95.86949111	      0.01606673	      0.88986753	      0.96336205	      3.78838521	     -8.14475822	      0.60223160	    -44.76511837	      6.40810471	     -7.76123868	     21.76107611	      3.47040779	     -0.61813116	     -6.47006887	    -40.31056455	     19.47770832	      4.55493639	     31.35917675	     -2.76662283	      5.51202049	     12.91140238	    -22.94627663	      2.33088867	    -13.30226968	    -16.32838195	   -149.33786180	   -137.40452801	     62.14555504	    129.16796941	     18.33901473	     -4.26232183	     68.45017433	    136.93497225	    -25.23957737	      4.66509160	     75.40953750	    146.93982598	     13.71925162	      7.27141864	     73.25562238
      3.48000000	     -0.52906503	      6.45365289	    -95.88968021	      0.01622369	      0.89026391	      0.96198416	      3.82549470	     -8.11179421	      0.58979757	    -44.71610068	      6.41446265	     -7.76569872	     21.76167007	      3.50552917	     -0.58133415	     -6.48263890	    -40.24718612	     19.48089323	      4.55053760	     31.35065516	     -2.84952605	      5.51852933	     12.88361476	    -22.94295604	      2.33014626	    -13.30678719	    -16.39272020	   -149.29641054	   -137.36101701	     62.11144525	    129.16851707	     18.33963708	     -4.26125094	     68.44758887	    136.92818034	    -25.24383150	      4.66457230	     75.42347367	    146.94326219	     13.72258416	      7.27085980	     73.25092504
      3.48250000	     -0.53932936	      6.45667125	    -95.89534229	      0.01645245	      0.89079482	      0.96020028	      3.89382362	     -8.08913173	      0.57693883	    -44.61764366	      6.42933551	     -7.77593250	     21.76252591	      3.55947941	     -0.56703790	     -6.49490670	    -40.12625370	     19.48887978	      4.53957707	     31.33766259	     -2.97216930	      5.52349705	     12.86266595	    -22.94941073	      2.32872447	    -13.31400600	    -16.42590444	   -149.25370211	   -137.34201984	     62.12132927	    129.16816375	     18.33454992	     -4.26256598	     68.44356077	    136.91943179	    -25.25083065	      4.66374173	     75.45316774	    146.94784570	     13.72606386	      7.26908546	     73.24411926
      3.48500000	     -0.83147339	      5.74355023	    -96.18254969	      0.01652364	      0.89302094	      0.96044030	      2.53745083	     -7.80481359	      0.71299778	    -43.39979970	      6.54381289	     -8.62965243	     21.78567156	      1.95587868	     -0.62111627	     -6.87225818	    -38.59290656	     19.68831258	      3.31288528	     29.64792189	     -3.69576750	      5.78228036	     13.18080726	    -23.76839004	      2.20357578	    -13.77060223	    -16.72471436	   -149.08188516	   -137.39018242	     62.47860443	    129.23112518	     17.67760345	     -4.28015114	     67.99799556	    136.35507874	    -25.17040648	      4.29239872	     76.29881659	    147.75687971	     14.49101038	      7.48504413	     72.30720406
      3.48750000	     -0.85132231	      5.74401238	    -96.20065573	      0.01675505	      0.89351159	      0.95893151	      2.59192588	     -7.79703092	      0.70611192	    -43.34677294	      6.54536020	     -8.62955401	     21.78531580	      2.00153928	     -0.58854465	     -6.88102176	    -38.53889551	     19.68539771	      3.32048122	     29.63952540	     -3.79797990	      5.80281856	     13.14797189	    -23.75997099	      2.21264362	    -13.77165557	    -16.76325769	   -149.05957357	   -137.36726757	     62.44902991	    129.23102289	     17.68127321	     -4.27922764	     67.99771347	    136.34607264	    -25.17472126	      4.29083448	     76.28625506	    147.75871084	     14.49445756	      7.48523114	     72.30186363
      3.49000000	     -0.85297219	      5.74658145	    -96.20530364	      0.01686936	      0.89398809	      0.95701027	      2.66050246	     -7.77147455	      0.69088848	    -43.25442436	      6.55115115	     -8.63067921	     21.78477896	      2.07483033	     -0.57685744	     -6.88805283	    -38.43438225	     19.68351639	      3.32724538	     29.62781674	     -3.92722472	      5.79996847	     13.13276357	    -23.75884975	      2.22141829	    -13.77315137	    -16.78397761	   -149.04023282	   -137.35764969	     62.45618028	    129.22912253	     17.68210823	     -4.28093923	     67.99692040	    136.35088817	    -25.19506228	      4.27966562	     76.28835408	    147.76070083	     14.49582932	      7.48463852	     72.29516602
